# xmcd
#
# Track frame offsets: 
#        150
#        15193
#        40239
#        64798
#        75642
#        104039
#        120589
#        134717
#
# Disc length: 2021 seconds
#
# Revision: 0
# Processed by: cddbd v1.5.2PL0 Copyright (c) Steve Scherf et al.
# Submitted via: ExactAudioCopy v0.99pb4
#
DISCID=6607e308
DTITLE=Al Green - Unchained Melody
DYEAR=1993
DGENRE=R and B
TTITLE0=Oh Pretty Woman
TTITLE1=Unchained Melody
TTITLE2=Funny How Time Slips Away
TTITLE3=Ain't No Mountain High Enough
TTITLE4=How Can You Mend a Broken Heart
TTITLE5=Take Me To the River
TTITLE6=I'm So Lonesome I Cound Cry
TTITLE7=I Can't Get Next to You
EXTD=
EXTT0=
EXTT1=
EXTT2=
EXTT3=
EXTT4=
EXTT5=
EXTT6=
EXTT7=
PLAYORDER=
